<svg width="88" height="73" viewBox="0 0 88 73" fill="none" xmlns="http://www.w3.org/2000/svg">
<path d="M24.5815 0.3125C18.2049 0.3125 12.0895 2.83061 7.58063 7.31288C3.07172 11.7951 0.538635 17.8744 0.538635 24.2133C0.538635 26.3861 0.932064 28.5589 1.50035 30.7317H19.3358L24.8875 16.087C26.1989 12.6105 31.3572 12.2629 33.0183 16.087L42.0672 39.4229L44.6464 33.2521C45.2146 31.8181 46.7446 30.7317 48.6243 30.7317H87.0055C87.5738 28.5589 87.9672 26.3861 87.9672 24.2133C87.9672 17.8744 85.4341 11.7951 80.9252 7.31288C76.4163 2.83061 70.3009 0.3125 63.9243 0.3125C55.7935 0.3125 48.6243 4.35391 44.2529 10.4812C39.8815 4.35391 32.7123 0.3125 24.5815 0.3125ZM4.91006 37.2501C3.75069 37.2501 2.6388 37.7079 1.819 38.5229C0.999195 39.3378 0.538635 40.4432 0.538635 41.5957C0.538635 42.7482 0.999195 43.8535 1.819 44.6685C2.6388 45.4835 3.75069 45.9413 4.91006 45.9413H15.5763L39.8815 69.8421C44.2529 73.7531 44.2529 73.7531 48.6243 69.8421L72.9295 45.9413H83.5958C84.7551 45.9413 85.867 45.4835 86.6868 44.6685C87.5066 43.8535 87.9672 42.7482 87.9672 41.5957C87.9672 40.4432 87.5066 39.3378 86.6868 38.5229C85.867 37.7079 84.7551 37.2501 83.5958 37.2501H50.3729L46.3075 47.245C44.5589 51.634 39.5318 51.0256 37.9143 47.3753L28.9529 24.2133L24.7563 34.3385C24.1006 35.9899 22.6143 37.2501 20.6472 37.2501H4.91006Z" fill="#EC5863"/>
</svg>
