<svg width="140" height="40" viewBox="0 0 140 40" fill="none" xmlns="http://www.w3.org/2000/svg">
<path d="M51.462 26.1415C49.734 26.1415 48.384 25.7215 47.412 24.8815C46.44 24.0295 45.924 22.8235 45.864 21.2635C45.852 20.9155 45.846 20.3635 45.846 19.6075C45.846 18.8515 45.852 18.2995 45.864 17.9515C45.924 16.4275 46.446 15.2515 47.43 14.4235C48.426 13.5955 49.77 13.1815 51.462 13.1815C52.602 13.1815 53.592 13.3675 54.432 13.7395C55.284 14.1115 55.932 14.5855 56.376 15.1615C56.832 15.7375 57.072 16.3315 57.096 16.9435C57.096 17.0515 57.054 17.1415 56.97 17.2135C56.898 17.2855 56.808 17.3215 56.7 17.3215H54.072C53.952 17.3215 53.856 17.3035 53.784 17.2675C53.712 17.2315 53.652 17.1655 53.604 17.0695C53.448 16.7215 53.202 16.4215 52.866 16.1695C52.53 15.9055 52.062 15.7735 51.462 15.7735C50.034 15.7735 49.284 16.5295 49.212 18.0415C49.2 18.3775 49.194 18.8995 49.194 19.6075C49.194 20.3035 49.2 20.8255 49.212 21.1735C49.284 22.7575 50.052 23.5495 51.516 23.5495C52.224 23.5495 52.788 23.3695 53.208 23.0095C53.64 22.6375 53.856 22.0735 53.856 21.3175V20.9755H52.164C52.032 20.9755 51.924 20.9335 51.84 20.8495C51.756 20.7535 51.714 20.6395 51.714 20.5075V19.1755C51.714 19.0435 51.756 18.9355 51.84 18.8515C51.924 18.7555 52.032 18.7075 52.164 18.7075H56.7C56.832 18.7075 56.94 18.7555 57.024 18.8515C57.108 18.9355 57.15 19.0435 57.15 19.1755V21.2275C57.15 22.2475 56.916 23.1295 56.448 23.8735C55.98 24.6055 55.314 25.1695 54.45 25.5655C53.598 25.9495 52.602 26.1415 51.462 26.1415ZM63.4451 26.1415C61.9571 26.1415 60.8111 25.7875 60.0071 25.0795C59.2031 24.3715 58.7651 23.3755 58.6931 22.0915C58.6811 21.9355 58.6751 21.6655 58.6751 21.2815C58.6751 20.8975 58.6811 20.6275 58.6931 20.4715C58.7651 19.1995 59.2151 18.2095 60.0431 17.5015C60.8711 16.7815 62.0051 16.4215 63.4451 16.4215C64.8971 16.4215 66.0371 16.7815 66.8651 17.5015C67.6931 18.2095 68.1431 19.1995 68.2151 20.4715C68.2271 20.6275 68.2331 20.8975 68.2331 21.2815C68.2331 21.6655 68.2271 21.9355 68.2151 22.0915C68.1431 23.3755 67.7051 24.3715 66.9011 25.0795C66.0971 25.7875 64.9451 26.1415 63.4451 26.1415ZM63.4451 23.9455C63.9731 23.9455 64.3631 23.7895 64.6151 23.4775C64.8671 23.1535 65.0111 22.6615 65.0471 22.0015C65.0591 21.8815 65.0651 21.6415 65.0651 21.2815C65.0651 20.9215 65.0591 20.6815 65.0471 20.5615C65.0111 19.9135 64.8611 19.4275 64.5971 19.1035C64.3451 18.7795 63.9611 18.6175 63.4451 18.6175C62.4491 18.6175 61.9211 19.2655 61.8611 20.5615L61.8431 21.2815L61.8611 22.0015C61.8851 22.6615 62.0231 23.1535 62.2751 23.4775C62.5391 23.7895 62.9291 23.9455 63.4451 23.9455Z" fill="black"/>
<path d="M75.385 26.1415C73.669 26.1415 72.325 25.7275 71.353 24.8995C70.393 24.0595 69.883 22.8475 69.823 21.2635C69.811 20.9395 69.805 20.4115 69.805 19.6795C69.805 18.9355 69.811 18.3955 69.823 18.0595C69.883 16.4995 70.405 15.2995 71.389 14.4595C72.373 13.6075 73.705 13.1815 75.385 13.1815C76.441 13.1815 77.389 13.3615 78.229 13.7215C79.069 14.0695 79.729 14.5735 80.209 15.2335C80.701 15.8815 80.953 16.6435 80.965 17.5195V17.5555C80.965 17.6515 80.923 17.7355 80.839 17.8075C80.767 17.8675 80.683 17.8975 80.587 17.8975H78.157C78.001 17.8975 77.881 17.8675 77.797 17.8075C77.713 17.7355 77.641 17.6095 77.581 17.4295C77.413 16.8175 77.149 16.3915 76.789 16.1515C76.429 15.8995 75.955 15.7735 75.367 15.7735C73.951 15.7735 73.219 16.5655 73.171 18.1495C73.159 18.4735 73.153 18.9715 73.153 19.6435C73.153 20.3155 73.159 20.8255 73.171 21.1735C73.219 22.7575 73.951 23.5495 75.367 23.5495C75.955 23.5495 76.435 23.4235 76.807 23.1715C77.179 22.9075 77.437 22.4815 77.581 21.8935C77.629 21.7135 77.695 21.5935 77.779 21.5335C77.863 21.4615 77.989 21.4255 78.157 21.4255H80.587C80.695 21.4255 80.785 21.4615 80.857 21.5335C80.941 21.6055 80.977 21.6955 80.965 21.8035C80.953 22.6795 80.701 23.4475 80.209 24.1075C79.729 24.7555 79.069 25.2595 78.229 25.6195C77.389 25.9675 76.441 26.1415 75.385 26.1415ZM87.0877 26.1415C85.5997 26.1415 84.4537 25.7875 83.6497 25.0795C82.8457 24.3715 82.4077 23.3755 82.3357 22.0915C82.3237 21.9355 82.3177 21.6655 82.3177 21.2815C82.3177 20.8975 82.3237 20.6275 82.3357 20.4715C82.4077 19.1995 82.8577 18.2095 83.6857 17.5015C84.5137 16.7815 85.6477 16.4215 87.0877 16.4215C88.5397 16.4215 89.6797 16.7815 90.5077 17.5015C91.3357 18.2095 91.7857 19.1995 91.8577 20.4715C91.8697 20.6275 91.8757 20.8975 91.8757 21.2815C91.8757 21.6655 91.8697 21.9355 91.8577 22.0915C91.7857 23.3755 91.3477 24.3715 90.5437 25.0795C89.7397 25.7875 88.5877 26.1415 87.0877 26.1415ZM87.0877 23.9455C87.6157 23.9455 88.0057 23.7895 88.2577 23.4775C88.5097 23.1535 88.6537 22.6615 88.6897 22.0015C88.7017 21.8815 88.7077 21.6415 88.7077 21.2815C88.7077 20.9215 88.7017 20.6815 88.6897 20.5615C88.6537 19.9135 88.5037 19.4275 88.2397 19.1035C87.9877 18.7795 87.6037 18.6175 87.0877 18.6175C86.0917 18.6175 85.5637 19.2655 85.5037 20.5615L85.4857 21.2815L85.5037 22.0015C85.5277 22.6615 85.6657 23.1535 85.9177 23.4775C86.1817 23.7895 86.5717 23.9455 87.0877 23.9455ZM94.1136 25.9615C93.9816 25.9615 93.8736 25.9195 93.7896 25.8355C93.7056 25.7515 93.6636 25.6435 93.6636 25.5115V17.0515C93.6636 16.9195 93.7056 16.8115 93.7896 16.7275C93.8736 16.6435 93.9816 16.6015 94.1136 16.6015H96.1836C96.3156 16.6015 96.4236 16.6495 96.5076 16.7455C96.6036 16.8295 96.6516 16.9315 96.6516 17.0515V17.7715C97.3116 16.9915 98.1996 16.6015 99.3156 16.6015H100.108C100.24 16.6015 100.348 16.6435 100.432 16.7275C100.516 16.8115 100.558 16.9195 100.558 17.0515V18.9055C100.558 19.0255 100.516 19.1335 100.432 19.2295C100.348 19.3135 100.24 19.3555 100.108 19.3555H98.3616C97.8696 19.3555 97.4856 19.4935 97.2096 19.7695C96.9456 20.0335 96.8136 20.4115 96.8136 20.9035V25.5115C96.8136 25.6435 96.7656 25.7515 96.6696 25.8355C96.5856 25.9195 96.4776 25.9615 96.3456 25.9615H94.1136ZM106.178 26.1415C104.69 26.1415 103.544 25.7875 102.74 25.0795C101.936 24.3715 101.498 23.3755 101.426 22.0915C101.414 21.9355 101.408 21.6655 101.408 21.2815C101.408 20.8975 101.414 20.6275 101.426 20.4715C101.498 19.1995 101.948 18.2095 102.776 17.5015C103.604 16.7815 104.738 16.4215 106.178 16.4215C107.63 16.4215 108.77 16.7815 109.598 17.5015C110.426 18.2095 110.876 19.1995 110.948 20.4715C110.96 20.6275 110.966 20.8975 110.966 21.2815C110.966 21.6655 110.96 21.9355 110.948 22.0915C110.876 23.3755 110.438 24.3715 109.634 25.0795C108.83 25.7875 107.678 26.1415 106.178 26.1415ZM106.178 23.9455C106.706 23.9455 107.096 23.7895 107.348 23.4775C107.6 23.1535 107.744 22.6615 107.78 22.0015C107.792 21.8815 107.798 21.6415 107.798 21.2815C107.798 20.9215 107.792 20.6815 107.78 20.5615C107.744 19.9135 107.594 19.4275 107.33 19.1035C107.078 18.7795 106.694 18.6175 106.178 18.6175C105.182 18.6175 104.654 19.2655 104.594 20.5615L104.576 21.2815L104.594 22.0015C104.618 22.6615 104.756 23.1535 105.008 23.4775C105.272 23.7895 105.662 23.9455 106.178 23.9455ZM113.203 25.9615C113.071 25.9615 112.963 25.9195 112.879 25.8355C112.795 25.7515 112.753 25.6435 112.753 25.5115V17.0515C112.753 16.9195 112.795 16.8115 112.879 16.7275C112.963 16.6435 113.071 16.6015 113.203 16.6015H115.273C115.405 16.6015 115.513 16.6435 115.597 16.7275C115.693 16.8115 115.741 16.9195 115.741 17.0515V17.7355C116.065 17.3395 116.479 17.0215 116.983 16.7815C117.499 16.5415 118.081 16.4215 118.729 16.4215C119.785 16.4215 120.643 16.7815 121.303 17.5015C121.963 18.2095 122.293 19.2055 122.293 20.4895V25.5115C122.293 25.6315 122.251 25.7395 122.167 25.8355C122.083 25.9195 121.975 25.9615 121.843 25.9615H119.575C119.455 25.9615 119.347 25.9195 119.251 25.8355C119.167 25.7395 119.125 25.6315 119.125 25.5115V20.5975C119.125 20.0335 118.987 19.6015 118.711 19.3015C118.435 18.9895 118.039 18.8335 117.523 18.8335C117.019 18.8335 116.623 18.9895 116.335 19.3015C116.047 19.6015 115.903 20.0335 115.903 20.5975V25.5115C115.903 25.6315 115.861 25.7395 115.777 25.8355C115.693 25.9195 115.585 25.9615 115.453 25.9615H113.203ZM127.128 26.1415C126.492 26.1415 125.91 26.0215 125.382 25.7815C124.866 25.5295 124.458 25.1935 124.158 24.7735C123.87 24.3415 123.726 23.8675 123.726 23.3515C123.726 22.5235 124.062 21.8575 124.734 21.3535C125.418 20.8495 126.354 20.5015 127.542 20.3095L129.792 19.9675V19.7155C129.792 19.2595 129.696 18.9235 129.504 18.7075C129.312 18.4915 128.988 18.3835 128.532 18.3835C128.256 18.3835 128.028 18.4315 127.848 18.5275C127.668 18.6235 127.482 18.7555 127.29 18.9235C127.122 19.0675 126.996 19.1635 126.912 19.2115C126.876 19.3075 126.81 19.3555 126.714 19.3555H124.752C124.632 19.3555 124.53 19.3195 124.446 19.2475C124.374 19.1635 124.344 19.0675 124.356 18.9595C124.368 18.6355 124.524 18.2755 124.824 17.8795C125.136 17.4835 125.604 17.1415 126.228 16.8535C126.864 16.5655 127.644 16.4215 128.568 16.4215C130.044 16.4215 131.136 16.7515 131.844 17.4115C132.552 18.0595 132.906 18.9355 132.906 20.0395V25.5115C132.906 25.6315 132.864 25.7395 132.78 25.8355C132.696 25.9195 132.588 25.9615 132.456 25.9615H130.368C130.248 25.9615 130.14 25.9195 130.044 25.8355C129.96 25.7395 129.918 25.6315 129.918 25.5115V24.8815C129.654 25.2535 129.282 25.5595 128.802 25.7995C128.334 26.0275 127.776 26.1415 127.128 26.1415ZM127.974 24.0895C128.526 24.0895 128.97 23.9095 129.306 23.5495C129.654 23.1895 129.828 22.6615 129.828 21.9655V21.7135L128.298 21.9835C127.218 22.1755 126.678 22.5535 126.678 23.1175C126.678 23.4175 126.804 23.6575 127.056 23.8375C127.308 24.0055 127.614 24.0895 127.974 24.0895Z" fill="#EC5863"/>
<path d="M14.2495 5.29255C15.6775 4.78705 17.2439 5.46031 17.7474 6.79565C18.1329 7.81803 17.7831 8.93123 16.9584 9.6243L17.4002 10.8403L18.1057 11.658C18.2667 11.8451 18.5115 11.9342 18.7571 11.9033C19.4193 11.8199 20.0772 11.8153 20.7212 11.8817C20.9395 11.9044 21.1569 11.8315 21.314 11.6783L21.8257 11.1811L22.2048 10.0804C21.8856 9.64009 21.7786 9.05614 21.9698 8.50058C22.2943 7.5588 23.348 7.0699 24.2831 7.45296C25.0887 7.78254 25.5252 8.68163 25.2871 9.51985C25.1358 10.0538 24.7553 10.4543 24.2876 10.6532L23.8679 11.873L23.9613 12.5443C23.9934 12.775 24.1296 12.9763 24.3288 13.0967C24.9987 13.5037 25.6136 14.0017 26.1532 14.5778C26.3345 14.7717 26.6055 14.8544 26.8663 14.801L28.2086 14.5274L29.7264 13.6801C29.7361 12.932 30.1362 12.2079 30.8384 11.8159C31.9 11.2235 33.2417 11.6166 33.8041 12.696C34.3117 13.6698 33.9886 14.8961 33.0634 15.4987C32.3409 15.9683 31.4608 15.9533 30.7824 15.5554L29.2556 16.4073L28.402 17.3169C28.1728 17.561 28.0906 17.9056 28.177 18.2278C28.1775 18.2297 28.1779 18.231 28.1784 18.2329C28.3262 18.7881 28.4154 19.3463 28.4515 19.8997C28.4724 20.2294 28.6577 20.5256 28.9486 20.6825L30.0584 21.281L32.2599 21.6925C32.649 21.3522 33.1843 21.1868 33.7306 21.2884C34.7101 21.4717 35.3386 22.4435 35.0851 23.4239C34.8672 24.2635 34.042 24.8241 33.1809 24.7163C32.5936 24.6427 32.1202 24.2895 31.8667 23.8138L29.6508 23.4L28.2831 23.5703C28.0309 23.6023 27.8105 23.761 27.7071 23.9929C27.2958 24.9085 26.7292 25.7509 26.0305 26.4788C25.8569 26.6596 25.7913 26.918 25.8536 27.1597L26.1902 28.4754L27.0259 29.7899C27.9492 29.6491 28.9084 30.046 29.4391 30.8809C30.1525 32.0026 29.8241 33.4909 28.7077 34.2184C27.592 34.9458 26.0768 34.6341 25.3493 33.5265C24.84 32.7511 24.8367 31.793 25.2529 31.0319L24.3657 29.6368L23.2728 28.7379C23.1109 28.604 22.8901 28.569 22.692 28.6401C22.4722 28.7191 22.2481 28.7898 22.0189 28.8516C20.7737 29.1874 19.5188 29.2334 18.3259 29.0328C18.1511 29.0038 17.972 29.0541 17.8379 29.1705L17.249 29.683L16.8094 30.7613C17.1039 31.2191 17.1781 31.8079 16.9565 32.3519C16.58 33.2751 15.501 33.7048 14.5891 33.2706C13.8038 32.8968 13.4178 31.9746 13.7019 31.1504C13.8829 30.6255 14.2842 30.2466 14.7623 30.0741L15.2493 28.879L15.162 27.8307C14.2902 27.2857 13.5149 26.5854 12.8816 25.7571L11.388 25.9082L9.98864 26.6033C9.99547 27.5414 9.51083 28.4352 8.66294 28.8693C7.46484 29.4822 5.99628 28.9458 5.38319 27.6706C4.77027 26.396 5.24381 24.8658 6.4419 24.2529C7.33849 23.7942 8.38593 23.9789 9.11344 24.6356L10.4331 23.9798L11.3503 22.9958C11.4102 22.9314 11.4326 22.841 11.4101 22.7566L11.4097 22.7553C10.9908 21.1816 11.0378 19.5896 11.4655 18.1255C11.4884 18.0452 11.4715 17.9586 11.4177 17.8949L10.6308 16.9536L8.9327 16.0649C8.46387 16.2723 7.90867 16.2731 7.42102 16.0176C6.54007 15.556 6.22492 14.4439 6.7528 13.5792C7.21623 12.821 8.2001 12.5312 8.99752 12.9174C9.51368 13.1672 9.84591 13.636 9.9432 14.1553L11.6413 15.044L12.8513 15.155C12.9353 15.1629 13.0172 15.1272 13.0708 15.0618C13.6213 14.3821 14.2762 13.7817 15.0197 13.2888C15.2237 13.1528 15.3508 12.9281 15.3546 12.6836L15.3698 11.5844L14.8986 10.2887C13.8704 10.217 12.9416 9.59627 12.5752 8.6252C12.0717 7.28985 12.8214 5.79742 14.2495 5.29255Z" fill="#EC5863"/>
<path d="M26.0025 18.8204C25.0926 15.4027 21.5756 13.3817 18.1469 14.3065C14.7182 15.2312 12.6763 18.7514 13.5861 22.1691C14.4959 25.5868 18.013 27.6078 21.4417 26.6831C24.8704 25.7584 26.9123 22.2381 26.0025 18.8204Z" fill="#F58A97"/>
<path d="M20.9462 24.8028C17.8432 25.6375 14.6653 24.0533 13.4173 21.2047C13.4523 21.5249 13.512 21.8465 13.5976 22.1673C14.51 25.5861 18.0255 27.6107 21.4498 26.6895C24.8741 25.7684 26.9102 22.2503 25.9977 18.8315C25.9121 18.5108 25.8036 18.2023 25.6744 17.9074C26.0123 21.0008 24.0492 23.9681 20.9462 24.8028Z" fill="#F07281"/>
<path d="M11.3271 33.946C11.0677 32.9725 10.0662 32.3965 9.09007 32.6595C8.11396 32.9226 7.53294 33.925 7.79233 34.8986C8.05171 35.8722 9.05327 36.4481 10.0294 36.1851C11.0055 35.9221 11.5865 34.9196 11.3271 33.946Z" fill="#EB5569"/>
<path d="M34.1126 28.3533C33.9413 27.7103 33.2797 27.3298 32.635 27.5036C31.9903 27.6773 31.6065 28.3394 31.7778 28.9825C31.9492 29.6255 32.6107 30.006 33.2554 29.8322C33.9002 29.6585 34.2839 28.9964 34.1126 28.3533Z" fill="#EB5569"/>
<path d="M30.8459 6.27555C30.5935 5.32839 29.6191 4.76802 28.6695 5.02393C27.7198 5.27984 27.1546 6.25512 27.4069 7.20228C27.6593 8.14944 28.6337 8.70981 29.5833 8.4539C30.533 8.19799 31.0982 7.22271 30.8459 6.27555Z" fill="#EB5569"/>
<path d="M20.1983 22.4244C19.963 21.5414 19.0546 21.019 18.1692 21.2576C17.2839 21.4961 16.7569 22.4054 16.9921 23.2884C17.2274 24.1715 18.1358 24.6939 19.0212 24.4553C19.9066 24.2167 20.4336 23.3075 20.1983 22.4244Z" fill="#EB5569"/>
<path d="M24.3122 19.9443C24.1521 19.3435 23.534 18.988 22.9315 19.1504C22.3291 19.3127 21.9705 19.9314 22.1305 20.5322C22.2906 21.133 22.9087 21.4884 23.5112 21.326C24.1137 21.1637 24.4723 20.545 24.3122 19.9443Z" fill="#EB5569"/>
<path d="M19.959 17.4428C19.8246 16.9383 19.3055 16.6398 18.7996 16.7761C18.2937 16.9125 17.9926 17.432 18.127 17.9364C18.2614 18.4409 18.7805 18.7394 19.2864 18.6031C19.7923 18.4667 20.0934 17.9473 19.959 17.4428Z" fill="#EB5569"/>
</svg>
