<svg width="65" height="74" viewBox="0 0 65 74" fill="none" xmlns="http://www.w3.org/2000/svg">
<path d="M64.4813 26.0942H43.0528V73.195H35.9099V51.4562H28.767V73.195H21.6242V26.0942H0.195618V18.8479H64.4813V26.0942ZM32.3385 0.732178C34.2329 0.732178 36.0497 1.49562 37.3892 2.85457C38.7288 4.21351 39.4813 6.05663 39.4813 7.97846C39.4813 9.9003 38.7288 11.7434 37.3892 13.1024C36.0497 14.4613 34.2329 15.2247 32.3385 15.2247C30.4441 15.2247 28.6273 14.4613 27.2877 13.1024C25.9482 11.7434 25.1956 9.9003 25.1956 7.97846C25.1956 3.95677 28.3742 0.732178 32.3385 0.732178Z" fill="#EC5863"/>
</svg>
